<svg xmlns="http://www.w3.org/2000/svg" width="138.755" height="89.269" viewBox="0 0 138.755 89.269">
  <g id="Grupo_277" data-name="Grupo 277" transform="translate(-380 -5097)">
    <path id="Caminho_465" data-name="Caminho 465" d="M186.135,173.46h-2.954v8.792h2.954a4.033,4.033,0,0,0,4.386-4.4C190.521,175.282,189.089,173.46,186.135,173.46Z" transform="translate(214.296 4939.034)" fill="#fff"/>
    <path id="Caminho_466" data-name="Caminho 466" d="M117.388,97.5a19.889,19.889,0,1,0,19.889,19.889A19.889,19.889,0,0,0,117.388,97.5Zm.572,26.9h-5.778v-14.02h5.778c4.386,0,7.28,2.784,7.28,7.01S122.346,124.4,117.96,124.4Z" transform="translate(282.501 4999.498)" fill="#fff"/>
    <path id="Caminho_467" data-name="Caminho 467" d="M616.829,345.814v-5.683H588.416v5.683h-5.683v28.413h5.683v5.683h28.413v-5.683h5.683V345.814Zm-10.656,21.419-4.987-5.768h-1.292v5.768H597.1v-14.02h2.794v5.678h1.322l4.636-5.678h3.5l-5.878,6.839,6.319,7.18Z" transform="translate(-103.757 4806.359)" fill="#fff"/>
    <path id="Caminho_468" data-name="Caminho 468" d="M420.26,180.7a4.589,4.589,0,1,0-4.446-4.587A4.329,4.329,0,0,0,420.26,180.7Z" transform="translate(29.114 4940.569)" fill="#fff"/>
    <path id="Caminho_469" data-name="Caminho 469" d="M340.128,97.5v39.779h39.779V97.5Zm19.885,26.956a7.271,7.271,0,1,1,7.37-7.27A7.061,7.061,0,0,1,360.013,124.458Z" transform="translate(89.362 4999.498)" fill="#fff"/>
    <path id="Caminho_470" data-name="Caminho 470" d="M351.469,340.131,340.1,351.5v17.048l11.365,11.365h17.048l11.365-11.365V351.5l-11.365-11.365Zm9.18,24.476a4.29,4.29,0,0,0,3.655-1.923l2.283,1.642a7.321,7.321,0,1,1-5.918-11.576,6.81,6.81,0,0,1,6.009,3.144l-2.4,1.473a4.2,4.2,0,0,0-3.625-1.933,4.59,4.59,0,0,0,0,9.173Z" transform="translate(89.382 4806.359)" fill="#fff"/>
  </g>
</svg>
